Coordinates
version=1
nRows=17
nColumns=24
inDegrees=yes

Units are S.I. units (second, meters, Newtons, ...)
Angles are in degrees.

endheader
time	pelvis_tilt	pelvis_list	pelvis_rotation	pelvis_tx	pelvis_ty	pelvis_tz	hip_flexion_r	hip_adduction_r	hip_rotation_r	knee_angle_r	ankle_angle_r	subtalar_angle_r	mtp_angle_r	hip_flexion_l	hip_adduction_l	hip_rotation_l	knee_angle_l	ankle_angle_l	subtalar_angle_l	mtp_angle_l	lumbar_extension	lumbar_bending	lumbar_rotation
      1.00000000	      4.60759196	      0.47414926	      0.65719909	      0.59200374	      1.04534294	      0.04506605	     -2.83850134	      1.45122031	     -3.97653426	    -10.62690174	      7.33533138	      0.00000006	      0.00000000	     18.75812071	     -2.32420711	     -4.30190183	    -56.90157946	      0.86230775	      0.00000481	      0.00000000	    -18.89462019	      0.80640974	      1.02382855
      1.01666667	      4.64328417	      0.48446624	      0.41610123	      0.59006724	      1.04526398	      0.04613829	     -4.27639706	      1.54176458	     -3.78875272	     -9.89902625	      7.74553873	      0.00000009	      0.00000000	     19.40010709	     -2.25003410	     -4.60670029	    -52.49687419	      1.07027448	      0.00000347	      0.00000000	    -19.01602094	      0.62025077	      1.32993343
      1.03333333	      4.65693935	      0.27922048	      0.23533806	      0.58807540	      1.04473669	      0.04733598	     -5.79737380	      1.87483819	     -3.67037579	     -8.95337173	      8.03362739	      0.00000000	      0.00000000	     19.84667908	     -2.56598906	     -5.23422931	    -47.57030141	      0.97672492	      0.00000209	      0.00000000	    -19.15130670	      0.70253895	      1.64953555
      1.05000000	      4.78452499	     -0.03900116	      0.13139884	      0.58608901	      1.04405043	      0.04803564	     -7.39508033	      2.29490060	     -3.62109687	     -8.12119827	      8.33123810	     -0.00000000	      0.00000000	     19.90784066	     -2.99790026	     -6.08387834	    -42.08116776	      0.54161839	      0.00000055	      0.00000000	    -19.46780714	      0.91088535	      1.78309601
      1.06666667	      4.66140706	     -0.64516037	     -0.15813317	      0.58397051	      1.04232475	      0.04892485	     -8.65065672	      2.97539273	     -3.28337312	     -7.41547693	      8.65604826	      0.00000002	      0.00000000	     20.06652087	     -3.75452992	     -7.21801635	    -36.33077422	     -0.09606741	     -0.00000072	      0.00000000	    -19.32113855	      1.42978478	      2.27898419
      1.08333333	      4.59051062	     -1.07012190	     -0.40539406	      0.58228547	      1.04036176	      0.04923270	    -10.03876043	      3.40774758	     -2.84106388	     -6.65347992	      9.01784186	     -0.00000003	      0.00000000	     19.86692910	     -4.14872479	     -8.40696082	    -30.12338702	     -1.00531074	     -0.00000158	      0.00000000	    -19.38652790	      1.66277910	      2.48078823
      1.10000000	      4.47828988	     -1.68027845	     -0.66634580	      0.58104449	      1.03785786	      0.04976365	    -11.47162947	      4.02829905	     -2.35982013	     -5.80381436	      9.30807862	      0.00000015	      0.00000000	     19.68397284	     -4.60318431	     -9.26653765	    -24.07121909	     -1.86586681	     -0.00000162	      0.00000000	    -19.27290303	      2.15536322	      2.90761521
      1.11666667	      4.34668164	     -2.23361189	     -0.92015081	      0.57986122	      1.03496032	      0.05003030	    -12.77809607	      4.55600329	     -1.73336829	     -5.22876792	      9.75911185	      0.00000014	      0.00000000	     19.39288606	     -4.81496885	     -9.51559938	    -17.99532085	     -2.63710324	     -0.00000132	      0.00000000	    -19.22764520	      2.60741670	      3.03196241
      1.13333333	      4.29110930	     -2.89824392	     -1.41404349	      0.57844926	      1.03176312	      0.05007042	    -14.03385979	      5.08479785	     -0.84503731	     -4.92930940	     10.30297827	      0.00000009	      0.00000000	     19.05327787	     -5.14280936	     -9.22336758	    -12.41166374	     -3.07243220	     -0.00000041	      0.00000000	    -19.26101311	      3.02531827	      3.57580631
      1.15000000	      4.46674641	     -3.51448943	     -1.65427227	      0.57782482	      1.02871635	      0.04963973	    -15.61776330	      5.57461240	     -0.17178878	     -4.54905190	     10.77941671	      0.00000022	      0.00000000	     18.33386961	     -5.34661014	     -8.06681281	     -7.14729338	     -3.26688735	      0.00000034	      0.00000000	    -19.47232714	      3.56166933	      3.97984847
      1.16666667	      4.51686693	     -3.94857066	     -2.00390575	      0.57760178	      1.02529734	      0.04951330	    -17.13362613	      5.83923210	      0.43258017	     -4.10071487	     11.21522830	      0.00000025	      0.00000000	     17.85658479	     -5.52562278	     -6.74892518	     -2.93656220	     -3.08895903	      0.00000117	      0.00000000	    -19.64779348	      3.68851944	      3.96677018
      1.18333333	      4.70034883	     -4.35992191	     -2.55156896	      0.57717019	      1.02233138	      0.04914381	    -18.52221436	      5.94073792	      1.16635192	     -4.17862763	     11.73742778	      0.00000036	      0.00000000	     17.33805980	     -5.80296296	     -5.66521621	      0.12148303	     -2.69370838	      0.00000177	      0.00000000	    -19.82214318	      3.84424123	      4.63752775
      1.20000000	      4.64118338	     -4.51225698	     -2.83291332	      0.57754615	      1.01926252	      0.04867435	    -19.71517532	      5.86618029	      1.55219951	     -4.16067573	     12.11028139	      0.00000051	      0.00000000	     17.20505642	     -5.80271351	     -4.64540323	      1.96991774	     -2.33545805	      0.00000220	      0.00000000	    -19.75833810	      3.67658655	      4.36118853
      1.21666667	      4.77753797	     -4.62201562	     -3.07941238	      0.57715322	      1.01705068	      0.04788588	    -20.66603304	      5.72038665	      1.91236578	     -4.92649966	     12.59649899	      0.00000083	      0.00000000	     17.23860806	     -5.76990419	     -3.82821314	      2.13846556	     -2.02157469	      0.00000236	      0.00000000	    -19.99812274	      3.42119070	      4.46970426
      1.23333333	      4.86164277	     -4.52036805	     -3.40406805	      0.57748235	      1.01526475	      0.04683569	    -21.43694651	      5.30798211	      2.33447868	     -5.94239416	     13.03991181	      0.00000116	      0.00000000	     17.35086691	     -5.52342468	     -3.34947832	      1.22317713	     -2.05407268	      0.00000224	      0.00000000	    -20.02875689	      2.92863228	      4.34163894
      1.25000000	      4.77964522	     -4.30873331	     -4.00477521	      0.57894188	      1.01393802	      0.04517768	    -21.87425303	      4.63725166	      2.95035244	     -7.35411343	     13.35990501	      0.00000157	      0.00000000	     17.57771570	     -5.19823145	     -3.29918115	     -0.51600413	     -2.47507975	      0.00000196	      0.00000000	    -19.77881634	      2.39633212	      4.55138572
      1.26666667	      4.59926769	     -3.98727182	     -4.05432580	      0.58103084	      1.01273264	      0.04326615	    -21.97879136	      4.10572240	      3.02349957	     -9.22772374	     13.61619674	      0.00000209	      0.00000000	     18.12127204	     -4.64775295	     -2.88212526	     -2.97428564	     -3.27376915	      0.00000178	      0.00000000	    -19.28780684	      1.79369710	      4.32133153
